<?xml version="1.0" encoding="utf-8"?>
<!-- Generator: Adobe Illustrator 26.5.0, SVG Export Plug-In . SVG Version: 6.00 Build 0)  -->
<svg version="1.1" xmlns="http://www.w3.org/2000/svg" xmlns:xlink="http://www.w3.org/1999/xlink" x="0px" y="0px"
	 viewBox="0 0 36 36" xml:space="preserve">
<style type="text/css">
	.st0{fill:#ffffff;}
</style>
<path class="st0" d="M18.9,0L18.9,0c-0.5,0-0.6,0-0.9,0l0,0c-0.3,0-0.2,0-0.9,0l0,0c-10.6,0.5-18.5,10-17,20.6c1.2,8.5,8.3,15,17,15.4l0,0
	c0.8,0,0.9,0,1.7,0l0,0c6.3-0.3,12-3.9,15-9.5C40,15,32.2,0.7,18.9,0z M28.1,16.9c-0.1-2-0.5-4-1.1-5.9h5.1c0.9,1.8,1.5,3.9,1.6,5.9
	H28.1z M3.9,25.1c-0.9-1.8-1.5-3.9-1.6-5.9h5.6c0.1,2,0.5,4,1.1,5.9H3.9z M23.5,8.7h-4.4V3.1C20.9,4.7,22.4,6.6,23.5,8.7z M16.9,3.1
	v5.5h-4.4C13.6,6.6,15.1,4.7,16.9,3.1z M16.9,10.9v5.9h-6.7c0.1-2,0.5-4,1.3-5.9H16.9z M10.2,19.1h6.7v5.9h-5.4
	C10.8,23.2,10.3,21.2,10.2,19.1z M16.9,27.3v5.5c-1.8-1.6-3.2-3.4-4.4-5.5H16.9z M19.1,32.9v-5.5h4.4C22.4,29.4,20.9,31.3,19.1,32.9
	z M19.1,25.1v-5.9h6.7c-0.1,2-0.5,4-1.3,5.9H19.1z M19.1,16.9v-5.9h5.4c0.7,1.9,1.2,3.9,1.3,5.9H19.1z M30.7,8.7H26
	c-1-2.2-2.4-4.1-4-5.9C25.5,3.7,28.5,5.8,30.7,8.7z M14,2.8c-1.6,1.7-3,3.7-4,5.9H5.3C7.5,5.8,10.5,3.7,14,2.8z M3.9,10.9h5.1
	c-0.6,1.9-1,3.9-1.1,5.9H2.3C2.5,14.7,3,12.7,3.9,10.9z M5.3,27.3H10c1,2.2,2.4,4.1,4,5.9C10.5,32.3,7.5,30.2,5.3,27.3z M22,33.2
	c1.6-1.7,3-3.7,4-5.9h4.6C28.5,30.2,25.5,32.3,22,33.2z M32.1,25.1h-5.1c0.6-1.9,1-3.9,1.1-5.9h5.6C33.5,21.3,33,23.3,32.1,25.1z"/>
</svg>
